<?xml version="1.0" encoding="UTF-8"?>
<svg xmlns="http://www.w3.org/2000/svg" viewBox="0 0 800 1000" preserveAspectRatio="xMidYMid slice" role="img" aria-label="Jazz Ensemble placeholder">
  <defs>
    <linearGradient id="g" x1="0" y1="0" x2="0" y2="1">
      <stop offset="0%" stop-color="#3a2516"/>
      <stop offset="55%" stop-color="#6a3f1f"/>
      <stop offset="100%" stop-color="#a16b34"/>
    </linearGradient>
    <radialGradient id="r" cx="65%" cy="35%" r="70%">
      <stop offset="0%" stop-color="#d4a05a" stop-opacity="0.55"/>
      <stop offset="60%" stop-color="#d4a05a" stop-opacity="0"/>
    </radialGradient>
  </defs>
  <rect width="800" height="1000" fill="url(#g)"/>
  <rect width="800" height="1000" fill="url(#r)"/>
  <!-- Staff lines, faded -->
  <g stroke="#f0d4a4" stroke-opacity="0.08" stroke-width="1.5">
    <line x1="0" y1="180" x2="800" y2="180"/>
    <line x1="0" y1="220" x2="800" y2="220"/>
    <line x1="0" y1="260" x2="800" y2="260"/>
    <line x1="0" y1="300" x2="800" y2="300"/>
    <line x1="0" y1="340" x2="800" y2="340"/>
  </g>
  <!-- Saxophone silhouette, simplified -->
  <g transform="translate(540, 380) rotate(15)" fill="#f4ddb3" fill-opacity="0.78">
    <path d="M0,0 q-6,-26 -10,-58 q-3,-32 6,-42 q9,-10 28,-8 q24,2 28,18 q5,18 -8,28 l-12,8 v210 q0,46 28,72 q26,24 60,24 q42,0 70,-32 q14,-16 8,-30 q-6,-12 -22,-10 q-8,2 -12,12 q-4,12 -16,16 q-16,4 -28,-8 q-12,-12 -12,-30 v-208 q0,-12 8,-18 l12,-8 q12,-8 6,-22 q-5,-10 -22,-12 z"/>
    <circle cx="86" cy="252" r="6" fill="#3a2516"/>
    <circle cx="86" cy="282" r="6" fill="#3a2516"/>
    <circle cx="86" cy="312" r="6" fill="#3a2516"/>
    <circle cx="86" cy="342" r="6" fill="#3a2516"/>
  </g>
  <!-- JAZZ wordmark -->
  <text x="60" y="780" font-family="Georgia, 'Times New Roman', serif" font-size="220" font-weight="500" font-style="italic" fill="#f4ddb3" fill-opacity="0.95" letter-spacing="-8">Jazz</text>
  <text x="62" y="840" font-family="-apple-system, system-ui, sans-serif" font-size="22" font-weight="500" letter-spacing="6" fill="#f4ddb3" fill-opacity="0.6">ENSEMBLE</text>
</svg>
